<svg width="470" height="470" viewBox="0 0 470 470" fill="none" xmlns="http://www.w3.org/2000/svg">
<g clip-path="url(#clip0_251_28)">
<path d="M235.02 312.704L318.191 359.254L299.606 265.782L369.577 201.059L274.931 189.838L235.02 103.299V312.704ZM235.02 357.589L96.899 434.904L127.743 279.647L11.5156 172.174L168.711 153.531L235.02 9.78906L301.329 153.531L458.525 172.174L342.298 279.647L373.141 434.904L235.02 357.589Z" fill="#F41F51"/>
<path d="M235 314.851V99L277.011 188.544L374 200.895L353.254 217.877L301.907 266.766L304.5 279.117L316.948 342.415L319.022 350.649L320.06 356.31L321.616 363L319.022 361.456L307.093 354.766L289.459 344.988L275.455 337.269L259.896 328.52L245.892 320.801L235 314.851Z" fill="#F41F51" fill-opacity="0.5"/>
</g>
<defs>
<clipPath id="clip0_251_28">
<rect width="470" height="470" fill="white"/>
</clipPath>
</defs>
</svg>
